<svg id="Vrstva_1" xmlns="http://www.w3.org/2000/svg" viewBox="0 0 155 84"><style>.st0{fill:#756057}.st1{fill:#F36A10}</style><path id="a" class="st0" d="M47.9 32.5c-.8.8-1.9.9-3.6.9-4.8 0-6.2-1.4-6.2-7.5s1.3-7.6 6.2-7.6c1.7 0 3 .3 3.6 1v-5.7c-.9-.1-1.8-.2-2.7-.2-2.6 0-5.5.5-7.6 2.3v-1.9h-5.1v33.8h5.6V36.3c1.6 1.7 3.7 2.1 6.4 2.1 1.3 0 2.4-.1 3.4-.4v-5.5z"/><path id="b" class="st1" d="M152 10.7c0-6.6-1.6-7.7-8-7.7-6.3 0-8 1.2-8 7.7s1.8 7.8 8.1 7.8c6.4 0 7.9-1.3 7.9-7.8zm-18.9 0c0-8.6 2.6-10.7 11.1-10.7s10.9 2.2 10.9 10.7-2.4 10.8-10.9 10.8-11.1-2.3-11.1-10.8z"/><path id="c" class="st1" d="M13.6 24.5h6.7l-4.6-13.1L6.1 38H0L12.8 4.8h6L31.6 38h-6.4l-3.1-8.5H11.8l1.8-5z"/><path id="d" class="st0" d="M62.4 18.3c-4.8 0-6.2 1.5-6.2 7.6s1.3 7.5 6.2 7.5c4.2 0 5.1-1.8 5.1-7.5 0-5.6-.9-7.6-5.1-7.6zm.3 20.1c-2.6 0-4.7-.4-6.4-2.1v11.2h-5.6V13.8h5.1v1.9c2-1.8 5-2.4 7.6-2.3 8.7.1 9.8 4.9 9.8 12.6-.1 5.8-1.1 12.4-10.5 12.4z"/><path id="e" class="st0" d="M75.9 38V4.9h5.6V38h-5.6z"/><path id="f" class="st0" d="M101.2 38v-1.9c-1.4 1.2-3.6 2.3-7 2.3-9.8 0-9.4-6.2-9.4-11.4V13.8h5.6v12.8c0 4.7-.4 6.9 4.4 6.9 6.1 0 5.6-4.2 5.6-8.4V13.8h5.6V38h-4.8z"/><path id="g" class="st0" d="M125.3 21c0-2.3-1.2-3-4.5-3.1-4.8-.2-5.6 1-5.7 2.6-.1 2.7 1.5 2.7 3.9 2.9 5.6.3 11.4-.1 11.3 7.7-.1 6-4.7 7.5-11.3 7.4-6.1-.1-10.1-1.7-10.1-7.7h5.2c0 2.1.9 3.1 4.9 3.2 4.8.2 5.7-.9 5.7-2.7.1-2.9-1.6-2.9-4.4-3.1-5.4-.3-11-.1-10.9-7.6.1-6 4.8-7.4 11.2-7.3 6 .1 9.7 1.9 9.7 7.7h-5z"/><path id="h" class="st1" d="M142.7 4.9v4.5h-4.5v2.8h4.5v4.5h2.7v-4.5h4.5V9.4h-4.5V4.9h-2.7z"/><path id="i" class="st1" d="M.1 83.3V57.1h5.8v26.3H.1z"/><path id="j" class="st1" d="M45.6 83.3V57.1h5.8v26.3h-5.8z"/><path id="k" class="st1" d="M54.3 83.4l13.4-26.3h5.2l13.3 26.3h-6.3l-3.4-6.9h-9.9l2.1-4.3h5.8l-4.3-8.9-9.7 20-6.2.1z"/><path id="l" class="st1" d="M115.8 70.2c0 2.4-.1 4-.2 5-.3 2-1 3.5-2 4.6-1.1 1.3-2.6 2.2-4.4 2.7-1.8.5-4.3.7-7.6.7H89.2V57.1h12.5c3.3 0 5.8.2 7.6.7 1.6.5 3.3 1.4 4.4 2.7 1.1 1.3 1.8 3.2 2 4.7.1 1 .1 2.7.1 5zm-5.7 0c0-1.6-.1-2.7-.2-3.4-.1-1.1-.4-2.6-1-3.5-.6-.9-1.5-1.3-2.6-1.5-1.1-.3-2.5-.3-4.4-.3h-7.1V79h7.1c1.9 0 3.3-.1 4.4-.3 1.1-.3 2.3-.7 2.8-1.8.5-1 .7-2 .8-3.2.1-.8.2-1.9.2-3.5z"/><path id="m" class="st1" d="M39.4 70.2c0 2.4-.1 4-.2 5-.3 2-1 3.5-2 4.6-1.1 1.3-2.6 2.2-4.4 2.7-1.8.5-4.3.7-7.6.7H12.7V57.1h12.5c3.3 0 5.8.2 7.6.7 1.6.5 3.3 1.4 4.4 2.7 1.1 1.3 1.8 3.2 2 4.7.1 1 .2 2.7.2 5zm-5.8 0c0-1.6-.1-2.7-.2-3.4-.1-1.1-.4-2.6-1-3.5-.6-.9-1.5-1.3-2.6-1.5-1.1-.3-2.5-.3-4.4-.3h-7.1V79h7.1c1.9 0 3.3-.1 4.4-.3 1.1-.3 2.3-.7 2.8-1.8.5-1 .7-2 .8-3.2.1-.8.2-1.9.2-3.5z"/><path id="n" class="st1" d="M117.9 83.4l13.4-26.3h5.2l13.3 26.3h-6.3l-3.4-6.9h-9.9l2.1-4.3h5.8l-4.3-8.9-9.7 20-6.2.1z"/></svg>